solid STL generated by MeshLab
  facet normal -7.561399e-01  0.000000e+00  6.544100e-01
    outer loop
      vertex  -1.876424e+01 -1.244252e+02  4.154895e+01
      vertex  -1.876424e+01 -8.457967e+01  4.154895e+01
      vertex  -4.827428e+01 -1.127938e+02  7.451498e+00
    endloop
  endfacet
  facet normal -7.578764e-01 -1.055342e-02  6.523128e-01
    outer loop
      vertex  -3.145321e+01 -1.366594e+02  2.660861e+01
      vertex  -1.876424e+01 -1.244252e+02  4.154895e+01
      vertex  -4.827428e+01 -1.127938e+02  7.451498e+00
    endloop
  endfacet
  facet normal -8.531104e-01  1.390131e-01  5.028697e-01
    outer loop
      vertex  -4.388627e+01 -2.358064e+01  5.647585e+00
      vertex  -1.876425e+01  1.202141e+01  3.842488e+01
      vertex  -6.890232e+00  1.498242e+02  2.047482e+01
    endloop
  endfacet
  facet normal  7.560524e-01  2.377644e-07  6.545112e-01
    outer loop
      vertex   4.784584e+01 -1.127935e+02  7.452940e+00
      vertex   1.832907e+01 -8.457970e+01  4.154895e+01
      vertex   1.832908e+01 -1.244252e+02  4.154895e+01
    endloop
  endfacet
  facet normal  7.578134e-01 -1.070562e-02  6.523834e-01
    outer loop
      vertex   4.784584e+01 -1.127935e+02  7.452940e+00
      vertex   1.832908e+01 -1.244252e+02  4.154895e+01
      vertex   3.101803e+01 -1.366594e+02  2.660861e+01
    endloop
  endfacet
  facet normal  8.530017e-01  1.390271e-01  5.030504e-01
    outer loop
      vertex   4.345962e+01 -2.358013e+01  5.651155e+00
      vertex   6.455073e+00  1.498242e+02  2.047481e+01
      vertex   1.832906e+01  1.202138e+01  3.842488e+01
    endloop
  endfacet
  facet normal  1.420869e-07  1.291678e-01  9.916227e-01
    outer loop
      vertex  -6.890232e+00  1.498242e+02  2.047482e+01
      vertex  -1.876425e+01  1.202141e+01  3.842488e+01
      vertex   1.832906e+01  1.202138e+01  3.842488e+01
    endloop
  endfacet
  facet normal -3.779557e-07 -7.736971e-01  6.335558e-01
    outer loop
      vertex  -3.145321e+01 -1.366594e+02  2.660861e+01
      vertex  -2.175913e-01 -1.366594e+02  2.660861e+01
      vertex   1.832908e+01 -1.244252e+02  4.154895e+01
    endloop
  endfacet
  facet normal -1.048787e-06 -7.736959e-01  6.335571e-01
    outer loop
      vertex  -1.876424e+01 -1.244252e+02  4.154895e+01
      vertex  -3.145321e+01 -1.366594e+02  2.660861e+01
      vertex   1.832908e+01 -1.244252e+02  4.154895e+01
    endloop
  endfacet
  facet normal -8.035253e-01  1.924089e-02  5.949596e-01
    outer loop
      vertex  -1.876424e+01 -8.457967e+01  4.154895e+01
      vertex  -1.876425e+01  1.202141e+01  3.842488e+01
      vertex  -4.388627e+01 -2.358064e+01  5.647585e+00
    endloop
  endfacet
  facet normal -7.756060e-01  5.087058e-02  6.291641e-01
    outer loop
      vertex  -4.388627e+01 -2.358064e+01  5.647585e+00
      vertex  -4.827428e+01 -1.127938e+02  7.451498e+00
      vertex  -1.876424e+01 -8.457967e+01  4.154895e+01
    endloop
  endfacet
  facet normal  8.033985e-01  1.924654e-02  5.951306e-01
    outer loop
      vertex   4.345962e+01 -2.358013e+01  5.651155e+00
      vertex   1.832906e+01  1.202138e+01  3.842488e+01
      vertex   1.832907e+01 -8.457970e+01  4.154895e+01
    endloop
  endfacet
  facet normal  7.755083e-01  5.083762e-02  6.292872e-01
    outer loop
      vertex   1.832907e+01 -8.457970e+01  4.154895e+01
      vertex   4.784584e+01 -1.127935e+02  7.452940e+00
      vertex   4.345962e+01 -2.358013e+01  5.651155e+00
    endloop
  endfacet
  facet normal  1.028406e-07  2.953698e-14  1.000000e+00
    outer loop
      vertex  -1.876424e+01 -1.244252e+02  4.154895e+01
      vertex   1.832908e+01 -1.244252e+02  4.154895e+01
      vertex   1.832907e+01 -8.457970e+01  4.154895e+01
    endloop
  endfacet
  facet normal  1.028406e-07  0.000000e+00  1.000000e+00
    outer loop
      vertex   1.832907e+01 -8.457970e+01  4.154895e+01
      vertex  -1.876424e+01 -8.457967e+01  4.154895e+01
      vertex  -1.876424e+01 -1.244252e+02  4.154895e+01
    endloop
  endfacet
  facet normal  2.659359e-08  3.232381e-02  9.994774e-01
    outer loop
      vertex   1.832906e+01  1.202138e+01  3.842488e+01
      vertex  -1.876425e+01  1.202141e+01  3.842488e+01
      vertex  -6.379805e+00  7.991163e+00  3.855522e+01
    endloop
  endfacet
  facet normal  1.360281e-07  3.232315e-02  9.994774e-01
    outer loop
      vertex  -1.876424e+01 -8.457967e+01  4.154895e+01
      vertex   1.832907e+01 -8.457970e+01  4.154895e+01
      vertex   9.139910e+00 -8.054947e+01  4.141861e+01
    endloop
  endfacet
  facet normal -7.821925e-01  5.319726e-02  6.207615e-01
    outer loop
      vertex  -4.414218e+01 -1.488936e+02  1.166826e+01
      vertex  -3.145321e+01 -1.366594e+02  2.660861e+01
      vertex  -4.620823e+01 -1.300387e+02  7.449125e+00
    endloop
  endfacet
  facet normal -8.044257e-01 -9.645575e-02  5.861703e-01
    outer loop
      vertex  -3.145321e+01 -1.366594e+02  2.660861e+01
      vertex  -4.827428e+01 -1.127938e+02  7.451498e+00
      vertex  -4.620823e+01 -1.300387e+02  7.449125e+00
    endloop
  endfacet
  facet normal -8.903708e-01 -1.066109e-01 -4.425764e-01
    outer loop
      vertex  -4.827428e+01 -1.127938e+02  7.451498e+00
      vertex  -4.601009e+01 -1.127938e+02  2.896437e+00
      vertex  -4.620823e+01 -1.300387e+02  7.449125e+00
    endloop
  endfacet
  facet normal -9.107397e-01  3.647741e-02 -4.113667e-01
    outer loop
      vertex  -4.388627e+01 -2.358064e+01  5.647585e+00
      vertex  -4.182883e+01 -2.358065e+01  1.092539e+00
      vertex  -4.827428e+01 -1.127938e+02  7.451498e+00
    endloop
  endfacet
  facet normal -8.949880e-01  3.295122e-02 -4.448715e-01
    outer loop
      vertex  -4.601009e+01 -1.127938e+02  2.896437e+00
      vertex  -4.827428e+01 -1.127938e+02  7.451498e+00
      vertex  -4.182883e+01 -2.358065e+01  1.092539e+00
    endloop
  endfacet
  facet normal -7.680895e-01 -1.831376e-01  6.135952e-01
    outer loop
      vertex  -3.549582e+01 -1.669362e+02  1.251150e+01
      vertex  -2.885005e+01 -1.579205e+02  2.352147e+01
      vertex  -3.145321e+01 -1.366594e+02  2.660861e+01
    endloop
  endfacet
  facet normal -6.190423e-01 -2.620551e-01  7.403471e-01
    outer loop
      vertex  -3.145321e+01 -1.366594e+02  2.660861e+01
      vertex  -4.414218e+01 -1.488936e+02  1.166826e+01
      vertex  -3.549582e+01 -1.669362e+02  1.251150e+01
    endloop
  endfacet
  facet normal  8.439605e-01 -4.150153e-01  3.398425e-01
    outer loop
      vertex  -2.175961e-01 -1.488936e+02  1.166826e+01
      vertex  -2.175913e-01 -1.366594e+02  2.660861e+01
      vertex  -9.429583e+00 -1.579205e+02  2.352145e+01
    endloop
  endfacet
  facet normal  8.439606e-01 -4.150146e-01  3.398432e-01
    outer loop
      vertex  -9.429583e+00 -1.579205e+02  2.352145e+01
      vertex  -9.429575e+00 -1.669363e+02  1.251148e+01
      vertex  -2.175961e-01 -1.488936e+02  1.166826e+01
    endloop
  endfacet
  facet normal -9.103985e-01  4.559259e-02 -4.112126e-01
    outer loop
      vertex  -4.388627e+01 -2.358064e+01  5.647585e+00
      vertex  -4.029583e+01  3.034733e+01  3.677767e+00
      vertex  -4.182883e+01 -2.358065e+01  1.092539e+00
    endloop
  endfacet
  facet normal -6.377382e-01  7.047649e-02  7.670223e-01
    outer loop
      vertex  -4.388627e+01 -2.358064e+01  5.647585e+00
      vertex  -6.890232e+00  1.498242e+02  2.047482e+01
      vertex  -4.029583e+01  3.034733e+01  3.677767e+00
    endloop
  endfacet
  facet normal -8.363931e-01  1.601567e-01  5.242104e-01
    outer loop
      vertex  -6.890232e+00  1.498242e+02  2.047482e+01
      vertex  -1.124589e+01  1.559023e+02  1.166826e+01
      vertex  -4.029583e+01  3.034733e+01  3.677767e+00
    endloop
  endfacet
  facet normal  3.977829e-06  8.230052e-01  5.680339e-01
    outer loop
      vertex   5.607421e+00  1.505400e+02  1.943763e+01
      vertex  -6.042578e+00  1.505401e+02  1.943764e+01
      vertex  -6.890232e+00  1.498242e+02  2.047482e+01
    endloop
  endfacet
  facet normal  9.823953e-08  8.230134e-01  5.680220e-01
    outer loop
      vertex   1.081073e+01  1.559023e+02  1.166825e+01
      vertex  -1.124589e+01  1.559023e+02  1.166826e+01
      vertex  -9.372272e+00  1.551865e+02  1.270544e+01
    endloop
  endfacet
  facet normal  8.963578e-01  0.000000e+00 -4.433314e-01
    outer loop
      vertex  -6.042578e+00  1.486715e+02  1.943764e+01
      vertex  -9.372272e+00  1.533180e+02  1.270544e+01
      vertex  -9.372272e+00  1.551865e+02  1.270544e+01
    endloop
  endfacet
  facet normal  8.963578e-01  0.000000e+00 -4.433314e-01
    outer loop
      vertex  -9.372272e+00  1.551865e+02  1.270544e+01
      vertex  -6.042578e+00  1.505401e+02  1.943764e+01
      vertex  -6.042578e+00  1.486715e+02  1.943764e+01
    endloop
  endfacet
  facet normal -3.084670e-06  8.230107e-01  5.680259e-01
    outer loop
      vertex  -6.042578e+00  1.505401e+02  1.943764e+01
      vertex  -9.372272e+00  1.551865e+02  1.270544e+01
      vertex  -1.124589e+01  1.559023e+02  1.166826e+01
    endloop
  endfacet
  facet normal -7.074256e-06  8.230095e-01  5.680277e-01
    outer loop
      vertex  -1.124589e+01  1.559023e+02  1.166826e+01
      vertex  -6.890232e+00  1.498242e+02  2.047482e+01
      vertex  -6.042578e+00  1.505401e+02  1.943764e+01
    endloop
  endfacet
  facet normal  1.362665e-06  8.230105e-01  5.680262e-01
    outer loop
      vertex   5.607421e+00  1.486715e+02  1.943763e+01
      vertex   8.937111e+00  1.533179e+02  1.270544e+01
      vertex  -9.372272e+00  1.533180e+02  1.270544e+01
    endloop
  endfacet
  facet normal  2.902157e-06  8.230121e-01  5.680239e-01
    outer loop
      vertex  -9.372272e+00  1.533180e+02  1.270544e+01
      vertex  -6.042578e+00  1.486715e+02  1.943764e+01
      vertex   5.607421e+00  1.486715e+02  1.943763e+01
    endloop
  endfacet
  facet normal -0.000000e+00  0.000000e+00  1.000000e+00
    outer loop
      vertex  -9.372272e+00  1.533180e+02  1.270544e+01
      vertex   8.937111e+00  1.533179e+02  1.270544e+01
      vertex   8.937111e+00  1.551865e+02  1.270544e+01
    endloop
  endfacet
  facet normal  0.000000e+00  0.000000e+00  1.000000e+00
    outer loop
      vertex   8.937111e+00  1.551865e+02  1.270544e+01
      vertex  -9.372272e+00  1.551865e+02  1.270544e+01
      vertex  -9.372272e+00  1.533180e+02  1.270544e+01
    endloop
  endfacet
  facet normal -1.309767e-06  0.000000e+00 -1.000000e+00
    outer loop
      vertex   5.607421e+00  1.486715e+02  1.943763e+01
      vertex  -6.042578e+00  1.486715e+02  1.943764e+01
      vertex  -6.042578e+00  1.505401e+02  1.943764e+01
    endloop
  endfacet
  facet normal -1.309768e-06  0.000000e+00 -1.000000e+00
    outer loop
      vertex  -6.042578e+00  1.505401e+02  1.943764e+01
      vertex   5.607421e+00  1.505400e+02  1.943763e+01
      vertex   5.607421e+00  1.486715e+02  1.943763e+01
    endloop
  endfacet
  facet normal  2.531505e-06  8.230133e-01  5.680221e-01
    outer loop
      vertex  -6.890232e+00  1.498242e+02  2.047482e+01
      vertex   6.455073e+00  1.498242e+02  2.047481e+01
      vertex   5.607421e+00  1.505400e+02  1.943763e+01
    endloop
  endfacet
  facet normal -8.443622e-07 -4.142462e-01  9.101650e-01
    outer loop
      vertex  -9.575089e+00 -8.054943e+01  4.141861e+01
      vertex   9.139910e+00 -8.054947e+01  4.141861e+01
      vertex   5.565617e+00 -6.592659e+01  4.807397e+01
    endloop
  endfacet
  facet normal -7.927944e-07 -4.142463e-01  9.101648e-01
    outer loop
      vertex   5.565617e+00 -6.592659e+01  4.807397e+01
      vertex  -6.000800e+00 -6.592656e+01  4.807397e+01
      vertex  -9.575089e+00 -8.054943e+01  4.141861e+01
    endloop
  endfacet
  facet normal  7.147195e-07 -1.436952e-01  9.896220e-01
    outer loop
      vertex  -2.885005e+01 -1.579205e+02  2.352147e+01
      vertex  -9.429583e+00 -1.579205e+02  2.352145e+01
      vertex  -2.175913e-01 -1.366594e+02  2.660861e+01
    endloop
  endfacet
  facet normal -7.019549e-08 -1.436942e-01  9.896222e-01
    outer loop
      vertex  -2.175913e-01 -1.366594e+02  2.660861e+01
      vertex  -3.145321e+01 -1.366594e+02  2.660861e+01
      vertex  -2.885005e+01 -1.579205e+02  2.352147e+01
    endloop
  endfacet
  facet normal  6.588559e-08  3.232363e-02  9.994774e-01
    outer loop
      vertex   9.139910e+00 -8.054947e+01  4.141861e+01
      vertex  -9.575089e+00 -8.054943e+01  4.141861e+01
      vertex  -1.876424e+01 -8.457967e+01  4.154895e+01
    endloop
  endfacet
  facet normal  3.223151e-05  3.225037e-02  9.994798e-01
    outer loop
      vertex  -1.876424e+01 -8.457967e+01  4.154895e+01
      vertex  -9.575089e+00 -8.054943e+01  4.141861e+01
      vertex  -1.473190e+01 -5.356702e+01  4.054813e+01
    endloop
  endfacet
  facet normal -5.272200e-04  3.232304e-02  9.994774e-01
    outer loop
      vertex  -1.876425e+01  1.202141e+01  3.842488e+01
      vertex  -1.876424e+01 -8.457967e+01  4.154895e+01
      vertex  -1.473190e+01 -5.356702e+01  4.054813e+01
    endloop
  endfacet
  facet normal  2.005659e-01  4.401327e-02  9.786910e-01
    outer loop
      vertex  -1.876425e+01  1.202141e+01  3.842488e+01
      vertex  -1.473190e+01 -5.356702e+01  4.054813e+01
      vertex  -1.332694e+01 -3.781176e+01  3.955167e+01
    endloop
  endfacet
  facet normal -3.281924e-03  2.224750e-02  9.997471e-01
    outer loop
      vertex  -1.876425e+01  1.202141e+01  3.842488e+01
      vertex  -1.332694e+01 -3.781176e+01  3.955167e+01
      vertex  -6.379805e+00  7.991163e+00  3.855522e+01
    endloop
  endfacet
  facet normal -7.188602e-01 -1.152707e-01  6.855308e-01
    outer loop
      vertex  -7.972072e+00 -5.258549e+01  4.780165e+01
      vertex  -1.473190e+01 -5.356702e+01  4.054813e+01
      vertex  -9.575089e+00 -8.054943e+01  4.141861e+01
    endloop
  endfacet
  facet normal -7.675743e-01 -1.004950e-01  6.330327e-01
    outer loop
      vertex  -9.575089e+00 -8.054943e+01  4.141861e+01
      vertex  -6.000800e+00 -6.592656e+01  4.807397e+01
      vertex  -7.972072e+00 -5.258549e+01  4.780165e+01
    endloop
  endfacet
  facet normal  4.015743e-08  2.040791e-02  9.997918e-01
    outer loop
      vertex   7.536882e+00 -5.258553e+01  4.780165e+01
      vertex  -7.972072e+00 -5.258549e+01  4.780165e+01
      vertex  -6.000800e+00 -6.592656e+01  4.807397e+01
    endloop
  endfacet
  facet normal  7.821437e-01  5.305550e-02  6.208353e-01
    outer loop
      vertex   4.370699e+01 -1.488936e+02  1.166826e+01
      vertex   4.577641e+01 -1.300386e+02  7.449827e+00
      vertex   3.101803e+01 -1.366594e+02  2.660861e+01
    endloop
  endfacet
  facet normal  8.043649e-01 -9.663045e-02  5.862249e-01
    outer loop
      vertex   4.577641e+01 -1.300386e+02  7.449827e+00
      vertex   4.784584e+01 -1.127935e+02  7.452940e+00
      vertex   3.101803e+01 -1.366594e+02  2.660861e+01
    endloop
  endfacet
  facet normal -8.439611e-01 -4.150144e-01  3.398424e-01
    outer loop
      vertex  -2.175913e-01 -1.366594e+02  2.660861e+01
      vertex  -2.175961e-01 -1.488936e+02  1.166826e+01
      vertex   8.994366e+00 -1.669362e+02  1.251148e+01
    endloop
  endfacet
  facet normal -8.439609e-01 -4.150145e-01  3.398426e-01
    outer loop
      vertex   8.994366e+00 -1.669362e+02  1.251148e+01
      vertex   8.994370e+00 -1.579205e+02  2.352146e+01
      vertex  -2.175913e-01 -1.366594e+02  2.660861e+01
    endloop
  endfacet
  facet normal  8.903264e-01 -1.067602e-01 -4.426298e-01
    outer loop
      vertex   4.784584e+01 -1.127935e+02  7.452940e+00
      vertex   4.577641e+01 -1.300386e+02  7.449827e+00
      vertex   4.558127e+01 -1.127935e+02  2.897882e+00
    endloop
  endfacet
  facet normal  8.948950e-01  3.501260e-02 -4.449013e-01
    outer loop
      vertex   4.784584e+01 -1.127935e+02  7.452940e+00
      vertex   4.558127e+01 -1.127935e+02  2.897882e+00
      vertex   4.345962e+01 -2.358013e+01  5.651155e+00
    endloop
  endfacet
  facet normal  9.107746e-01  3.435855e-02 -4.114717e-01
    outer loop
      vertex   4.140173e+01 -2.358013e+01  1.096102e+00
      vertex   4.345962e+01 -2.358013e+01  5.651155e+00
      vertex   4.558127e+01 -1.127935e+02  2.897882e+00
    endloop
  endfacet
  facet normal  6.885949e-01 -2.991153e-01  6.605808e-01
    outer loop
      vertex   2.841485e+01 -1.579205e+02  2.352143e+01
      vertex   3.506061e+01 -1.669362e+02  1.251147e+01
      vertex   4.370699e+01 -1.488936e+02  1.166826e+01
    endloop
  endfacet
  facet normal  6.682637e-01 -1.863954e-01  7.201946e-01
    outer loop
      vertex   4.370699e+01 -1.488936e+02  1.166826e+01
      vertex   3.101803e+01 -1.366594e+02  2.660861e+01
      vertex   2.841485e+01 -1.579205e+02  2.352143e+01
    endloop
  endfacet
  facet normal  9.103647e-01  4.560069e-02 -4.112865e-01
    outer loop
      vertex   4.345962e+01 -2.358013e+01  5.651155e+00
      vertex   4.140173e+01 -2.358013e+01  1.096102e+00
      vertex   3.986823e+01  3.034777e+01  3.680937e+00
    endloop
  endfacet
  facet normal  6.376154e-01  7.048903e-02  7.671231e-01
    outer loop
      vertex   4.345962e+01 -2.358013e+01  5.651155e+00
      vertex   3.986823e+01  3.034777e+01  3.680937e+00
      vertex   6.455073e+00  1.498242e+02  2.047481e+01
    endloop
  endfacet
  facet normal  8.363659e-01  1.602129e-01  5.242364e-01
    outer loop
      vertex   3.986823e+01  3.034777e+01  3.680937e+00
      vertex   1.081073e+01  1.559023e+02  1.166825e+01
      vertex   6.455073e+00  1.498242e+02  2.047481e+01
    endloop
  endfacet
  facet normal -8.963577e-01  0.000000e+00 -4.433317e-01
    outer loop
      vertex   8.937111e+00  1.533179e+02  1.270544e+01
      vertex   5.607421e+00  1.486715e+02  1.943763e+01
      vertex   5.607421e+00  1.505400e+02  1.943763e+01
    endloop
  endfacet
  facet normal -8.963577e-01  0.000000e+00 -4.433317e-01
    outer loop
      vertex   5.607421e+00  1.505400e+02  1.943763e+01
      vertex   8.937111e+00  1.551865e+02  1.270544e+01
      vertex   8.937111e+00  1.533179e+02  1.270544e+01
    endloop
  endfacet
  facet normal  1.371757e-06  8.230018e-01  5.680388e-01
    outer loop
      vertex  -9.372272e+00  1.551865e+02  1.270544e+01
      vertex   8.937111e+00  1.551865e+02  1.270544e+01
      vertex   1.081073e+01  1.559023e+02  1.166825e+01
    endloop
  endfacet
  facet normal -3.770171e-06  8.230109e-01  5.680256e-01
    outer loop
      vertex   8.937111e+00  1.551865e+02  1.270544e+01
      vertex   5.607421e+00  1.505400e+02  1.943763e+01
      vertex   6.455073e+00  1.498242e+02  2.047481e+01
    endloop
  endfacet
  facet normal -1.048044e-05  8.230119e-01  5.680242e-01
    outer loop
      vertex   6.455073e+00  1.498242e+02  2.047481e+01
      vertex   1.081073e+01  1.559023e+02  1.166825e+01
      vertex   8.937111e+00  1.551865e+02  1.270544e+01
    endloop
  endfacet
  facet normal  1.053425e-06 -1.436958e-01  9.896219e-01
    outer loop
      vertex   8.994370e+00 -1.579205e+02  2.352146e+01
      vertex   2.841485e+01 -1.579205e+02  2.352143e+01
      vertex   3.101803e+01 -1.366594e+02  2.660861e+01
    endloop
  endfacet
  facet normal -7.019572e-08 -1.436947e-01  9.896221e-01
    outer loop
      vertex   3.101803e+01 -1.366594e+02  2.660861e+01
      vertex  -2.175913e-01 -1.366594e+02  2.660861e+01
      vertex   8.994370e+00 -1.579205e+02  2.352146e+01
    endloop
  endfacet
  facet normal  3.281601e-03  2.224753e-02  9.997471e-01
    outer loop
      vertex   1.832906e+01  1.202138e+01  3.842488e+01
      vertex   5.944605e+00  7.991133e+00  3.855522e+01
      vertex   1.289176e+01 -3.781179e+01  3.955167e+01
    endloop
  endfacet
  facet normal -3.779557e-07 -7.736970e-01  6.335558e-01
    outer loop
      vertex  -2.175913e-01 -1.366594e+02  2.660861e+01
      vertex   3.101803e+01 -1.366594e+02  2.660861e+01
      vertex   1.832908e+01 -1.244252e+02  4.154895e+01
    endloop
  endfacet
  facet normal  7.675741e-01 -1.004948e-01  6.330329e-01
    outer loop
      vertex   7.536882e+00 -5.258553e+01  4.780165e+01
      vertex   5.565617e+00 -6.592659e+01  4.807397e+01
      vertex   9.139910e+00 -8.054947e+01  4.141861e+01
    endloop
  endfacet
  facet normal  7.188600e-01 -1.152705e-01  6.855311e-01
    outer loop
      vertex   9.139910e+00 -8.054947e+01  4.141861e+01
      vertex   1.429672e+01 -5.356704e+01  4.054813e+01
      vertex   7.536882e+00 -5.258553e+01  4.780165e+01
    endloop
  endfacet
  facet normal  3.835840e-07  2.040756e-02  9.997918e-01
    outer loop
      vertex  -6.000800e+00 -6.592656e+01  4.807397e+01
      vertex   5.565617e+00 -6.592659e+01  4.807397e+01
      vertex   7.536882e+00 -5.258553e+01  4.780165e+01
    endloop
  endfacet
  facet normal -3.179874e-05  3.225042e-02  9.994798e-01
    outer loop
      vertex   9.139910e+00 -8.054947e+01  4.141861e+01
      vertex   1.832907e+01 -8.457970e+01  4.154895e+01
      vertex   1.429672e+01 -5.356704e+01  4.054813e+01
    endloop
  endfacet
  facet normal  6.009507e-01  1.037132e-01  7.925287e-01
    outer loop
      vertex   1.832907e+01 -8.457970e+01  4.154895e+01
      vertex   1.289176e+01 -3.781179e+01  3.955167e+01
      vertex   1.429672e+01 -5.356704e+01  4.054813e+01
    endloop
  endfacet
  facet normal -8.876476e-02  3.219540e-02  9.955322e-01
    outer loop
      vertex   1.832907e+01 -8.457970e+01  4.154895e+01
      vertex   1.832906e+01  1.202138e+01  3.842488e+01
      vertex   1.289176e+01 -3.781179e+01  3.955167e+01
    endloop
  endfacet
  facet normal  1.448080e-06  1.291680e-01  9.916227e-01
    outer loop
      vertex   1.832906e+01  1.202138e+01  3.842488e+01
      vertex   6.455073e+00  1.498242e+02  2.047481e+01
      vertex  -6.890232e+00  1.498242e+02  2.047482e+01
    endloop
  endfacet
  facet normal  3.893964e-07  3.232158e-02  9.994775e-01
    outer loop
      vertex  -6.379805e+00  7.991163e+00  3.855522e+01
      vertex   5.944605e+00  7.991133e+00  3.855522e+01
      vertex   1.832906e+01  1.202138e+01  3.842488e+01
    endloop
  endfacet
endsolid vcg
